<?xml version="1.0" encoding="utf-8"?>
<svg width="1920px" height="1080px" viewBox="0 0 1920 1080" version="1.1" xmlns:xlink="http://www.w3.org/1999/xlink" xmlns="http://www.w3.org/2000/svg">
  <defs>
    <rect width="1920" height="1080" id="artboard_1" />
    <clipPath id="clip_1">
      <use xlink:href="#artboard_1" clip-rule="evenodd" />
    </clipPath>
  </defs>
  <g id="Black-HD" clip-path="url(#clip_1)">
    <use xlink:href="#artboard_1" stroke="none" fill="#FFFFFF" />
    <g id="Group-2" transform="translate(502 412.57513)">
      <path d="M0 0L0 256L526.625 256L725.333 0L582.709 0L512 91.0953L512 0L384 0L384 74.9257L331.036 0L0 0ZM128 0C180.544 0 225.693 31.6594 245.412 76.943L128 128.333L245.166 179.616C225.32 224.601 180.327 256 128 256C57.3076 256 0 198.693 0 128C0 57.3075 57.3076 0 128 0Z" transform="scale(0.99999994 0.99999994)" id="Vector-shape-Difference-Union" fill="#000000" fill-rule="evenodd" stroke="none" />
      <path d="M127.999 0L128.001 0C163.347 0 193.516 12.4967 218.51 37.4901C243.503 62.4836 256 92.6533 256 127.999L256 256L138.667 256L138.667 117.333C138.667 114.387 137.625 111.873 135.543 109.791C133.46 107.708 130.946 106.667 128.001 106.667L127.999 106.667C125.054 106.667 122.54 107.708 120.457 109.791C118.375 111.873 117.333 114.387 117.333 117.333L117.333 256L0 256L0 127.999C-8.13802e-05 92.6533 12.4966 62.4836 37.49 37.4901C62.4834 12.4967 92.6533 0 127.999 0L127.999 0Z" transform="matrix(0.99999994 0 0 0.99999994 660.1677 0)" id="Vector-shape" fill="#FF6700" fill-rule="evenodd" stroke="none" />
    </g>
    <path d="M916.536 22.9663C916.536 12.2365 900.692 14.7477 900.692 9.17738C900.692 7.16841 902.108 6.20957 903.98 6.25523C906.08 6.30089 907.541 7.53367 907.678 9.58831L916.125 9.58831C915.805 3.47006 911.103 0 904.117 0C897.405 0 892.428 3.37874 892.428 9.45134C892.337 20.8203 908.363 17.6242 908.363 23.5599C908.363 25.4319 906.902 26.5733 904.619 26.5733C902.427 26.5733 900.875 25.3862 900.647 22.9206L892.337 22.9206C892.565 29.4042 897.953 32.8286 904.847 32.8286C912.335 32.8286 916.536 28.354 916.536 22.9663L916.536 22.9663ZM858.474 16.3914C858.474 6.75748 851.214 0 842.082 0C832.996 0 825.599 6.75748 825.599 16.3914C825.599 26.0254 832.996 32.8286 842.082 32.8286C851.168 32.8286 858.474 26.0254 858.474 16.3914L858.474 16.3914ZM833.59 16.3915C833.59 10.6842 836.877 7.07715 842.082 7.07715C847.196 7.07715 850.529 10.6842 850.529 16.3915C850.529 22.0075 847.196 25.7059 842.082 25.7059C836.877 25.7059 833.59 22.0075 833.59 16.3915L833.59 16.3915ZM784.704 32.5089L792.969 32.5089L781.371 0.456543L772.331 0.456543L760.734 32.5089L768.906 32.5089L770.824 26.8472L782.787 26.8472L784.704 32.5089ZM780.778 20.8203L772.879 20.8203L776.805 9.08606L780.778 20.8203ZM718.971 32.5089L726.779 32.5089L726.779 0.456543L718.971 0.456543L718.971 13.0127L706.826 13.0127L706.826 0.456543L699.018 0.456543L699.018 32.5089L706.826 32.5089L706.826 19.3136L718.971 19.3136L718.971 32.5089ZM632.463 16.4372C632.463 26.0255 639.129 32.7373 648.581 32.7373C656.206 32.7373 661.959 28.491 663.785 21.5509L655.201 21.5509C653.877 24.2904 651.457 25.6602 648.49 25.6602C643.695 25.6602 640.408 22.0988 640.408 16.4372C640.408 10.7755 643.695 7.21412 648.49 7.21412C651.457 7.21412 653.877 8.58387 655.201 11.3234L663.785 11.3234C661.959 4.38328 656.206 0.0913696 648.581 0.0913696C639.129 0.0913696 632.463 6.84885 632.463 16.4372L632.463 16.4372ZM539.654 32.5089L547.462 32.5089L547.462 19.5418L557.233 19.5418L557.233 13.4693L547.462 13.4693L547.462 6.71178L560.52 6.71178L560.52 0.456543L539.654 0.456543L539.654 32.5089ZM504.878 16.3914C504.878 6.75748 497.618 0 488.486 0C479.4 0 472.004 6.75748 472.004 16.3914C472.004 26.0254 479.4 32.8286 488.486 32.8286C497.572 32.8286 504.878 26.0254 504.878 16.3914L504.878 16.3914ZM479.994 16.3915C479.994 10.6842 483.281 7.07715 488.486 7.07715C493.6 7.07715 496.933 10.6842 496.933 16.3915C496.933 22.0075 493.6 25.7059 488.486 25.7059C483.281 25.7059 479.994 22.0075 479.994 16.3915L479.994 16.3915ZM399.102 0.456543L379.469 0.456543L379.469 32.5089L399.102 32.5089L399.102 26.2537L387.276 26.2537L387.276 19.2222L397.732 19.2222L397.732 13.1953L387.276 13.1953L387.276 6.71178L399.102 6.71178L399.102 0.456543ZM344.236 22.9663C344.236 12.2365 328.392 14.7477 328.392 9.17738C328.392 7.16841 329.808 6.20957 331.68 6.25523C333.78 6.30089 335.241 7.53367 335.378 9.58831L343.825 9.58831C343.505 3.47006 338.802 0 331.817 0C325.105 0 320.128 3.37874 320.128 9.45134C320.037 20.8203 336.063 17.6242 336.063 23.5599C336.063 25.4319 334.602 26.5733 332.319 26.5733C330.127 26.5733 328.575 25.3862 328.346 22.9206L320.037 22.9206C320.265 29.4042 325.653 32.8286 332.547 32.8286C340.035 32.8286 344.236 28.354 344.236 22.9663L344.236 22.9663ZM277.041 32.5089L284.849 32.5089L284.849 0.456543L277.041 0.456543L277.041 32.5089ZM233.772 10.8668C233.772 13.378 232.402 14.8847 229.48 14.8847L224.641 14.8847L224.641 6.94012L229.48 6.94012C232.402 6.94012 233.772 8.49252 233.772 10.8668L233.772 10.8668ZM216.833 0.456543L216.833 32.5089L224.64 32.5089L224.64 20.4094L226.512 20.4094L233.179 32.5089L241.991 32.5089L234.594 19.8158C239.525 18.3547 241.717 14.5651 241.717 10.5471C241.717 4.97674 237.79 0.456543 229.937 0.456543L216.833 0.456543ZM142.607 0.456543L122.974 0.456543L122.974 32.5089L142.607 32.5089L142.607 26.2537L130.782 26.2537L130.782 19.2222L141.237 19.2222L141.237 13.1953L130.782 13.1953L130.782 6.71178L142.607 6.71178L142.607 0.456543ZM79.1111 32.5089L86.9188 32.5089L86.9188 0.456543L79.1111 0.456543L79.1111 13.0127L66.966 13.0127L66.966 0.456543L59.1583 0.456543L59.1583 32.5089L66.966 32.5089L66.966 19.3136L79.1111 19.3136L79.1111 32.5089ZM0 6.71178L8.49251 6.71178L8.49251 32.5089L16.3001 32.5089L16.3001 6.71178L24.7926 6.71178L24.7926 0.456543L0 0.456543L0 6.71178Z" transform="translate(502.2 694)" id="THE----RISE----OF----CHAOS" fill="#000000" stroke="none" />
  </g>
</svg>