<?xml version="1.0" encoding="utf-8"?>
<svg width="1920px" height="1080px" viewBox="0 0 1920 1080" version="1.1" xmlns:xlink="http://www.w3.org/1999/xlink" xmlns="http://www.w3.org/2000/svg">
  <defs>
    <radialGradient gradientUnits="objectBoundingBox" cx="0%" cy="0%" fx="0%" fy="0%" r="5310.2373%" gradientTransform="translate(0,0),scale(0.01883155,1),scale(1,0),translate(-0,-0)" id="gradient_1">
      <stop offset="0%" stop-color="#00A6D6" />
      <stop offset="50.86207%" stop-color="#D6006E" />
      <stop offset="100%" stop-color="#F5E617" />
    </radialGradient>
    <rect width="1920" height="1080" id="artboard_1" />
    <clipPath id="clip_1">
      <use xlink:href="#artboard_1" clip-rule="evenodd" />
    </clipPath>
  </defs>
  <g id="CNvN-Subtitle-Black" clip-path="url(#clip_1)">
    <use xlink:href="#artboard_1" stroke="none" fill="#FFFFFF" />
    <path d="M1265.1 0L1249.1 23.4984L1249.1 71.1666L1286.75 110.554L1286.75 147.48L1282.82 154.418L1245.65 154.418L1250.33 183.735L1301.77 183.735L1316.78 160.237L1316.78 93.9936L1280.11 56.62L1280.11 36.0309L1284.29 29.0933L1309.15 29.0933L1319 0L1265.1 0ZM1203.56 29.0933L1206.27 36.0309L1206.27 147.48L1203.56 154.418L1190.03 154.418L1186.83 147.48L1186.83 36.0309L1190.03 29.0933L1203.56 29.0933ZM1223.99 183.735L1238.76 160.237L1238.76 23.4984L1223.01 0L1170.58 0L1154.83 23.4984L1154.83 160.237L1169.35 183.735L1223.99 183.735ZM1110.53 183.735L1143.02 183.735L1143.02 82.1325L1121.11 0L1079.52 0L1057.86 82.1325L1057.86 183.735L1088.87 183.735L1088.87 136.738L1110.53 136.738L1110.53 183.735ZM1088.87 83.2514L1097.48 43.8636L1100.68 43.8636L1110.53 83.2514L1110.53 109.435L1088.87 109.435L1088.87 83.2514ZM992.878 101.603L1012.08 101.603L1012.08 183.735L1044.57 183.735L1044.57 0L1012.08 0L1012.08 75.1949L992.878 75.1949L992.878 0L960.636 0L960.636 183.735L992.878 183.735L992.878 101.603ZM884.583 160.237L899.104 183.735L951.776 183.735L947.099 154.418L919.779 154.418L916.58 147.48L916.58 36.0309L919.779 29.0933L942.423 29.0933L952.022 0L900.335 0L884.583 23.4984L884.583 160.237ZM818.128 75.1949L794.5 75.1949L794.5 29.0933L812.96 29.0933L822.805 0L762.011 0L762.011 183.735L794.5 183.735L794.5 101.603L811.729 101.603L818.128 75.1949ZM714.016 29.0933L716.723 36.0309L716.723 147.48L714.016 154.418L700.479 154.418L697.279 147.48L697.279 36.0309L700.479 29.0933L714.016 29.0933ZM734.445 183.735L749.213 160.237L749.213 23.4984L733.461 0L681.035 0L665.283 23.4984L665.283 160.237L679.805 183.735L734.445 183.735ZM598.829 75.1949L572.248 75.1949L572.248 29.0933L593.661 29.0933L603.26 0L539.759 0L539.759 183.735L603.26 183.735L598.829 154.418L572.248 154.418L572.248 101.603L592.43 101.603L598.829 75.1949ZM474.781 0L458.783 23.4984L458.783 71.1666L496.44 110.554L496.44 147.48L492.502 154.418L455.337 154.418L460.013 183.735L511.454 183.735L526.468 160.237L526.468 93.9936L489.795 56.62L489.795 36.0309L493.979 29.0933L518.838 29.0933L528.683 0L474.781 0ZM446.722 0L414.479 0L414.479 183.735L446.722 183.735L446.722 0ZM312.582 183.735L345.317 183.735L345.317 29.0933L361.808 29.0933L365.253 36.0309L365.253 74.2997L350.486 92.8746L365.253 109.435L365.253 170.979L372.391 183.735L407.095 183.735L398.973 170.979L398.973 108.316L386.913 88.6225L398.973 70.0476L398.973 23.4984L384.451 0L312.582 0L312.582 183.735ZM244.405 75.1949L217.823 75.1949L217.823 29.0933L239.236 29.0933L248.835 0L185.334 0L185.334 183.735L248.835 183.735L244.405 154.418L217.823 154.418L217.823 101.603L238.006 101.603L244.405 75.1949ZM119.126 101.603L138.324 101.603L138.324 183.735L170.813 183.735L170.813 0L138.324 0L138.324 75.1949L119.126 75.1949L119.126 0L86.8833 0L86.8833 183.735L119.126 183.735L119.126 101.603ZM78.5147 0L9.84511 0L0 29.0933L19.4441 29.0933L19.4441 183.735L51.6868 183.735L51.6868 29.0933L68.6696 29.0933L78.5147 0Z" transform="translate(299.49268 490.68298)" id="THE-RISE-OF-CHAOS" fill="#000000" stroke="none" />
    <path d="M462.844 0L0 0L0 24.8011L462.844 24.8011L462.844 -7.10543e-15L462.844 0ZM852.844 24.8011L1317 24.8011L1317 0L852.844 0L852.844 24.8011Z" transform="translate(300.15576 400.40002)" id="Vector-Difference" fill="url(#gradient_1)" fill-rule="evenodd" stroke="none" />
    <path d="M0 0L1315.49 0L1315.49 24.9857L0 24.9857L0 0Z" transform="translate(299.49997 723.51434)" id="Rectangle-2" fill="#FF6700" fill-rule="evenodd" stroke="none" />
    <g id="Group" transform="translate(793 359.4)">
      <path d="M109.409 0L139.38 0L139.38 82.9999L105.059 82.9999L76.0547 52.0371L76.0547 82.9999L15.6299 82.9999C32.181 82.9999 46.4554 73.193 53.0253 59.04L29.9503 48.2668C27.4469 53.6542 22.0119 57.3867 15.7104 57.3867C7.03382 57.3867 0 50.3102 0 41.581C0 32.8518 7.03382 25.7754 15.7104 25.7754C22.0119 25.7754 27.4469 29.5078 29.9502 34.8951L53.0869 24.0933C46.545 9.86856 32.2329 0 15.6299 0L80.4053 0L109.409 30.9629L109.409 0L109.409 0Z" transform="translate(25.620117 0)" id="Vector" fill="#000000" fill-rule="evenodd" stroke="none" />
      <path d="M0 41.5C0 18.5802 18.4683 0 41.25 0C57.853 0 72.165 9.86852 78.7069 24.0933L55.5703 34.8952C53.0669 29.5078 47.632 25.7754 41.3305 25.7754C32.6539 25.7754 25.6201 32.8518 25.6201 41.581C25.6201 50.3102 32.6539 57.3867 41.3305 57.3867C47.632 57.3867 53.067 53.6542 55.5704 48.2668L78.6453 59.04C72.0755 73.193 57.8011 82.9999 41.25 82.9999C18.4683 82.9999 0 64.4197 0 41.5L0 41.5Z" id="Vector-shape-4" fill="#FFFFFF" fill-rule="evenodd" stroke="none" />
      <path d="M0 0L39.9613 0C51.708 0 61.7345 4.17827 70.0407 12.5348C78.3469 20.8913 82.5 30.9786 82.5 42.7965L82.5 82.9999L46.4063 82.9999L46.4063 36.6364C46.4063 35.1144 45.8714 33.8154 44.8017 32.7392C43.732 31.6631 42.4408 31.125 40.928 31.125L36.0938 31.125L36.0938 82.9999L0 82.9999L0 0L0 0Z" transform="translate(247.5 9.1552734E-05)" id="Vector-shape" fill="#FF6700" fill-rule="evenodd" stroke="none" />
      <path d="M50.6658 82.9999L0 0L27.7989 0L54.701 40.3652L54.7011 0L82.5 0L82.5 82.9999L50.6658 82.9999L50.6658 82.9999Z" transform="translate(165 9.1552734E-05)" id="Vector-shape" fill="#000000" fill-rule="evenodd" stroke="none" />
    </g>
  </g>
</svg>