<?xml version="1.0" encoding="utf-8"?>
<svg width="1920px" height="1080px" viewBox="0 0 1920 1080" version="1.1" xmlns:xlink="http://www.w3.org/1999/xlink" xmlns="http://www.w3.org/2000/svg">
  <defs>
    <linearGradient x1="0" y1="0" x2="1" y2="1" id="gradient_1">
      <stop offset="0" stop-color="#000000" stop-opacity="0" />
      <stop offset="1" stop-color="#000000" />
    </linearGradient>
    <radialGradient gradientUnits="objectBoundingBox" cx="0%" cy="0%" fx="0%" fy="0%" r="5310.2373%" gradientTransform="translate(0,0),scale(0.01883155,1),scale(1,0),translate(-0,-0)" id="gradient_2">
      <stop offset="0%" stop-color="#00A6D6" />
      <stop offset="50.86207%" stop-color="#D6006E" />
      <stop offset="100%" stop-color="#F5E617" />
    </radialGradient>
    <rect width="1920" height="1080" id="artboard_1" />
    <clipPath id="clip_1">
      <use xlink:href="#artboard_1" clip-rule="evenodd" />
    </clipPath>
  </defs>
  <g id="CNvN-Subtitle-White" clip-path="url(#clip_1)">
    <use xlink:href="#artboard_1" stroke="none" fill="#000000" />
    <g id="Group-2" transform="translate(665.5 247.20007)" opacity="0.25">
      <path d="M262.18 116.74C223.567 116.74 183.994 120.702 143.462 128.627C146.94 110.663 151.106 92.516 155.961 74.1859Q164.755 40.9838 173.537 16.2596C202.501 5.54829 232.663 0.128397 264.025 0L264.025 116.743C263.409 116.741 262.794 116.74 262.18 116.74ZM449.448 143.989C472.332 150.252 492.443 156.515 509.781 162.779L509.529 162.18Q489.402 114.534 452.685 77.7697C428.207 53.2603 400.106 34.288 368.383 20.8529C365.475 19.6212 362.554 18.4441 359.621 17.3217C365.272 33.4418 370.922 52.1677 376.572 73.4991C381.596 92.4684 385.885 111.243 389.44 129.824C409.07 133.69 429.072 138.411 449.448 143.989ZM400.048 262.095L266.311 262.095L266.311 119.173C304.969 119.456 345.366 123.703 387.503 131.914C395.867 176.132 400.049 219.238 400.049 261.233L400.048 262.095ZM128.002 262.095L128.001 261.233C128.001 219.151 132.183 175.963 140.546 131.67C120.873 135.618 100.973 140.501 80.8452 146.318C56.6545 153.31 35.9444 160.297 18.7146 167.279C6.64318 197.559 0.405066 229.165 0 262.095L128.002 262.095ZM264.025 404.965C225.256 404.37 184.743 399.815 142.487 391.299C134.56 347.148 130.496 304.843 130.295 264.384L264.025 264.384L264.025 404.965ZM402.327 264.384C402.124 305.503 397.946 348.514 389.796 393.418C410.952 389.32 432.374 384.138 454.063 377.872Q488.759 367.849 513.911 357.831C524.875 328.309 530.357 297.542 530.357 265.529C530.357 265.147 530.356 264.766 530.355 264.384L402.327 264.384ZM153.76 454.4C148.564 433.682 144.154 413.339 140.531 393.37C122.489 389.698 104.132 385.309 85.4596 380.201C58.7103 372.882 35.7487 365.561 16.575 358.237C17.9056 361.802 19.3161 365.348 20.8066 368.877C34.2245 400.641 53.1724 428.778 77.6503 453.288Q114.367 490.052 161.952 510.205C164.806 511.413 167.671 512.569 170.548 513.672C164.951 496.472 159.355 476.715 153.76 454.4ZM266.311 407.414L266.311 531.058C297.752 530.929 327.988 525.482 357.02 514.716C362.801 497.143 368.584 476.82 374.37 453.747C379.244 434.311 383.425 415.205 386.912 396.431C347.953 403.777 309.892 407.45 272.728 407.451C270.593 407.451 268.454 407.439 266.311 407.414Z" transform="translate(27.454773 27.471283)" id="Vector-Intersect" fill="#FFFFFF" fill-rule="evenodd" stroke="none" />
      <path d="M0 293C0 131.181 131.012 0 292.623 0C454.234 0 585.246 131.181 585.246 293C585.246 454.819 454.234 586 292.623 586C131.012 586 0 454.819 0 293L0 293ZM170.917 156.099C211.449 148.174 251.022 144.211 289.635 144.211C290.249 144.211 290.864 144.212 291.48 144.214L291.48 27.4713C260.118 27.5996 229.955 33.0195 200.992 43.7308C195.137 60.2136 189.278 79.5224 183.416 101.657C178.561 119.987 174.395 138.134 170.917 156.099L170.917 156.099ZM537.235 190.25C519.898 183.986 499.787 177.723 476.903 171.461C456.527 165.882 436.524 161.161 416.894 157.295C413.34 138.715 409.05 119.94 404.026 100.97C398.377 79.6389 392.727 60.913 387.076 44.7929C390.009 45.9154 392.93 47.0924 395.838 48.3242C427.561 61.7593 455.662 80.7315 480.14 105.241C504.618 129.75 523.566 157.887 536.984 189.652L537.235 190.25L537.235 190.25ZM293.766 289.566L427.503 289.566L427.503 288.704C427.503 246.709 423.321 203.603 414.957 159.385C372.821 151.174 332.424 146.927 293.766 146.644L293.766 289.566L293.766 289.566ZM155.456 288.704L155.457 289.566L27.4548 289.566C27.8598 256.636 34.098 225.03 46.1694 194.75C63.3991 187.768 84.1092 180.781 108.3 173.79C128.428 167.972 148.328 163.09 168.001 159.141C159.638 203.434 155.456 246.622 155.456 288.704L155.456 288.704ZM169.942 418.771C212.198 427.286 252.711 431.841 291.48 432.436L291.48 291.855L157.75 291.855C157.951 332.314 162.015 374.619 169.942 418.771L169.942 418.771ZM417.25 420.889C425.401 375.986 429.578 332.974 429.782 291.855L557.809 291.855C557.811 292.237 557.812 292.618 557.812 293C557.812 325.013 552.33 355.78 541.366 385.302C524.598 391.981 504.648 398.661 481.518 405.343C459.829 411.61 438.407 416.792 417.25 420.889L417.25 420.889ZM167.986 420.841C171.61 440.81 176.019 461.154 181.215 481.871C186.81 504.186 192.407 523.943 198.004 541.144C195.127 540.04 192.261 538.884 189.408 537.676C157.684 524.24 129.584 505.268 105.106 480.759C80.6278 456.249 61.6798 428.112 48.262 396.348C46.7715 392.82 45.361 389.273 44.0304 385.708C63.2041 393.032 86.1657 400.353 112.915 407.672C131.587 412.78 149.944 417.17 167.986 420.841L167.986 420.841ZM293.766 558.529L293.766 434.886C295.909 434.91 298.048 434.922 300.183 434.922C337.347 434.921 375.408 431.248 414.366 423.902C410.88 442.676 406.699 461.782 401.825 481.219C396.039 504.291 390.256 524.614 384.474 542.187C355.443 552.953 325.207 558.4 293.766 558.529L293.766 558.529Z" id="Vector-2" fill="#000000" fill-rule="evenodd" stroke="none" />
      <path d="M15.001 284.514C7.53885 278.856 2.53846 271.517 0 262.496C15.2366 115.011 139.732 0 291.056 0C452.667 0 583.679 131.181 583.679 293C583.679 314.844 581.292 336.129 576.764 356.609C572.896 362.477 567.87 367.077 561.686 370.409C555.503 373.74 548.9 375.406 541.878 375.406L541.873 375.406C530.33 375.406 520.478 371.32 512.315 363.147C504.153 354.974 500.072 345.109 500.072 333.551L500.072 279.917C500.072 268.359 495.991 258.494 487.829 250.321C479.667 242.149 469.814 238.063 458.271 238.063L443.897 238.063C436.322 238.063 429.856 240.744 424.5 246.107C419.144 251.47 416.466 257.944 416.466 265.529L416.466 265.534C416.466 273.118 413.788 279.592 408.431 284.955C403.075 290.318 396.61 293 389.035 293L374.007 293C362.644 293 352.946 288.977 344.911 280.932C336.877 272.888 332.859 263.176 332.859 251.799L332.859 251.795C332.859 240.417 328.842 230.706 320.807 222.661C312.773 214.616 303.074 210.594 291.712 210.594L290.401 210.594C279.038 210.594 269.339 214.616 261.305 222.661C253.27 230.706 249.253 240.417 249.253 251.795L249.253 251.799C249.253 263.176 245.236 272.888 237.201 280.932C229.166 288.977 219.468 293 208.105 293L206.794 293C195.432 293 185.733 288.977 177.698 280.932C169.664 272.888 165.646 263.176 165.646 251.799L165.646 251.795C165.646 240.417 161.629 230.706 153.594 222.661C145.56 214.616 135.861 210.594 124.499 210.594L123.188 210.594C111.825 210.594 102.126 214.616 94.0918 222.661C86.0571 230.706 82.0398 240.417 82.0399 251.795L82.0399 251.799C82.0398 263.176 78.0225 272.888 69.9879 280.932C61.9533 288.977 52.2547 293 40.8921 293L40.2344 293C30.8744 293 22.4633 290.171 15.001 284.514ZM375.256 375.04C362.68 375.04 352.485 364.832 352.485 352.24C352.485 339.648 362.68 311.525 375.256 311.525C387.832 311.525 398.027 339.648 398.027 352.24C398.027 364.832 387.832 375.04 375.256 375.04ZM539.125 443.848C530.442 443.848 523.402 436.799 523.402 428.105C523.402 419.41 530.442 399.992 539.125 399.992C547.809 399.992 554.848 419.41 554.848 428.105C554.848 436.799 547.809 443.848 539.125 443.848Z" transform="translate(2.3214722 0)" id="Vector-Union" fill="#FF6700" fill-rule="evenodd" stroke="none" />
      <path d="M292.623 0C131.012 0 0 131.181 0 293C0 454.819 131.012 586 292.623 586C454.234 586 585.245 454.819 585.245 293C585.245 131.181 454.234 0 292.623 0L292.623 0Z" id="Path-2" fill="url(#gradient_1)" fill-rule="evenodd" stroke="none" />
    </g>
    <path d="M1265.1 0L1249.1 23.4984L1249.1 71.1666L1286.75 110.554L1286.75 147.48L1282.82 154.418L1245.65 154.418L1250.33 183.735L1301.77 183.735L1316.78 160.237L1316.78 93.9936L1280.11 56.62L1280.11 36.0309L1284.29 29.0933L1309.15 29.0933L1319 0L1265.1 0ZM1203.56 29.0933L1206.27 36.0309L1206.27 147.48L1203.56 154.418L1190.03 154.418L1186.83 147.48L1186.83 36.0309L1190.03 29.0933L1203.56 29.0933ZM1223.99 183.735L1238.76 160.237L1238.76 23.4984L1223.01 0L1170.58 0L1154.83 23.4984L1154.83 160.237L1169.35 183.735L1223.99 183.735ZM1110.53 183.735L1143.02 183.735L1143.02 82.1325L1121.11 0L1079.52 0L1057.86 82.1325L1057.86 183.735L1088.87 183.735L1088.87 136.738L1110.53 136.738L1110.53 183.735ZM1088.87 83.2514L1097.48 43.8636L1100.68 43.8636L1110.53 83.2514L1110.53 109.435L1088.87 109.435L1088.87 83.2514ZM992.879 101.603L1012.08 101.603L1012.08 183.735L1044.57 183.735L1044.57 0L1012.08 0L1012.08 75.1949L992.879 75.1949L992.879 0L960.636 0L960.636 183.735L992.879 183.735L992.879 101.603ZM884.583 160.237L899.104 183.735L951.776 183.735L947.099 154.418L919.779 154.418L916.58 147.48L916.58 36.0309L919.779 29.0933L942.423 29.0933L952.022 0L900.335 0L884.583 23.4984L884.583 160.237ZM818.128 75.1949L794.5 75.1949L794.5 29.0933L812.96 29.0933L822.805 0L762.011 0L762.011 183.735L794.5 183.735L794.5 101.603L811.729 101.603L818.128 75.1949ZM714.016 29.0933L716.723 36.0309L716.723 147.48L714.016 154.418L700.479 154.418L697.279 147.48L697.279 36.0309L700.479 29.0933L714.016 29.0933ZM734.445 183.735L749.213 160.237L749.213 23.4984L733.461 0L681.036 0L665.283 23.4984L665.283 160.237L679.805 183.735L734.445 183.735ZM598.829 75.1949L572.248 75.1949L572.248 29.0933L593.661 29.0933L603.26 0L539.759 0L539.759 183.735L603.26 183.735L598.829 154.418L572.248 154.418L572.248 101.603L592.43 101.603L598.829 75.1949ZM474.781 0L458.783 23.4984L458.783 71.1666L496.44 110.554L496.44 147.48L492.502 154.418L455.337 154.418L460.013 183.735L511.454 183.735L526.468 160.237L526.468 93.9936L489.795 56.62L489.795 36.0309L493.979 29.0933L518.838 29.0933L528.683 0L474.781 0ZM446.722 0L414.479 0L414.479 183.735L446.722 183.735L446.722 0ZM312.582 183.735L345.317 183.735L345.317 29.0933L361.808 29.0933L365.253 36.0309L365.253 74.2997L350.486 92.8746L365.253 109.435L365.253 170.979L372.391 183.735L407.095 183.735L398.973 170.979L398.973 108.316L386.913 88.6225L398.973 70.0476L398.973 23.4984L384.451 0L312.582 0L312.582 183.735ZM244.405 75.1949L217.823 75.1949L217.823 29.0933L239.236 29.0933L248.835 0L185.334 0L185.334 183.735L248.835 183.735L244.405 154.418L217.823 154.418L217.823 101.603L238.005 101.603L244.405 75.1949ZM119.126 101.603L138.324 101.603L138.324 183.735L170.813 183.735L170.813 0L138.324 0L138.324 75.1949L119.126 75.1949L119.126 0L86.8834 0L86.8834 183.735L119.126 183.735L119.126 101.603ZM78.5147 0L9.84511 0L0 29.0933L19.4441 29.0933L19.4441 183.735L51.6868 183.735L51.6868 29.0933L68.6696 29.0933L78.5147 0Z" transform="translate(299.4928 490.68298)" id="THE-RISE-OF-CHAOS" fill="#FFFFFF" stroke="none" />
    <path d="M462.844 0L0 0L0 24.8011L462.844 24.8011L462.844 -7.10543e-15L462.844 0ZM852.844 24.8011L1317 24.8011L1317 0L852.844 0L852.844 24.8011Z" transform="translate(300.15588 400.40002)" id="Vector-Difference" fill="url(#gradient_2)" fill-rule="evenodd" stroke="none" />
    <path d="M0 0L1315.49 0L1315.49 24.9857L0 24.9857L0 0Z" transform="translate(299.49997 723.51434)" id="Rectangle-2" fill="#FF6700" fill-rule="evenodd" stroke="none" />
    <g id="Group" transform="translate(793 359.8)">
      <path d="M109.409 0L139.38 0L139.38 82.9999L105.059 82.9999L76.0547 52.0371L76.0547 82.9999L15.6299 82.9999C32.181 82.9999 46.4554 73.193 53.0253 59.04L29.9503 48.2668C27.4469 53.6542 22.0119 57.3867 15.7104 57.3867C7.03382 57.3867 0 50.3102 0 41.581C0 32.8518 7.03382 25.7754 15.7104 25.7754C22.0119 25.7754 27.4469 29.5078 29.9502 34.8951L53.0869 24.0933C46.545 9.86856 32.2329 0 15.6299 0L80.4053 0L109.409 30.9629L109.409 0L109.409 0Z" transform="translate(25.620117 0)" id="Vector" fill="#FFFFFF" fill-rule="evenodd" stroke="none" />
      <path d="M0 41.5C0 18.5802 18.4683 0 41.25 0C57.853 0 72.165 9.86852 78.7069 24.0933L55.5703 34.8952C53.0669 29.5078 47.632 25.7754 41.3305 25.7754C32.6539 25.7754 25.6201 32.8518 25.6201 41.581C25.6201 50.3102 32.6539 57.3867 41.3305 57.3867C47.632 57.3867 53.067 53.6542 55.5704 48.2668L78.6453 59.04C72.0755 73.193 57.8011 82.9999 41.25 82.9999C18.4683 82.9999 0 64.4197 0 41.5L0 41.5Z" id="Vector-shape-4" fill="#000000" fill-rule="evenodd" stroke="none" />
      <path d="M0 0L39.9613 0C51.708 0 61.7345 4.17827 70.0407 12.5348C78.3469 20.8913 82.5 30.9786 82.5 42.7965L82.5 82.9999L46.4063 82.9999L46.4063 36.6364C46.4063 35.1144 45.8714 33.8154 44.8017 32.7392C43.732 31.6631 42.4408 31.125 40.928 31.125L36.0938 31.125L36.0938 82.9999L0 82.9999L0 0L0 0Z" transform="translate(247.5 9.1552734E-05)" id="Vector-shape" fill="#FF6700" fill-rule="evenodd" stroke="none" />
      <path d="M50.6658 82.9999L0 0L27.7989 0L54.701 40.3652L54.7011 0L82.5 0L82.5 82.9999L50.6658 82.9999L50.6658 82.9999Z" transform="translate(164.99994 9.1552734E-05)" id="Vector-shape" fill="#FFFFFF" fill-rule="evenodd" stroke="none" />
    </g>
  </g>
</svg>