<?xml version="1.0" encoding="utf-8"?>
<svg width="512px" height="512px" viewBox="0 0 512 512" version="1.1" xmlns:xlink="http://www.w3.org/1999/xlink" xmlns="http://www.w3.org/2000/svg">
  <defs>
    <rect width="512" height="512" id="artboard_1" />
    <clipPath id="clip_1">
      <use xlink:href="#artboard_1" clip-rule="evenodd" />
    </clipPath>
  </defs>
  <g id="YT-Banner-2" clip-path="url(#clip_1)">
    <g id="Group-2" opacity="0.5">
      <path d="M229.368 101.998C195.587 101.998 160.967 105.46 125.508 112.384C128.55 96.6886 132.195 80.8331 136.443 64.8177C141.571 45.4781 146.697 28.6077 151.819 14.2063C177.157 4.84766 203.545 0.112183 230.982 0L230.982 102C230.443 101.999 229.905 101.998 229.368 101.998ZM393.198 125.806C413.218 131.278 430.812 136.75 445.979 142.223L445.759 141.7C434.021 113.947 417.444 89.3634 396.03 67.949C374.615 46.5346 350.031 29.9581 322.278 18.2196Q318.462 16.6053 314.613 15.1343C319.557 29.2188 324.5 45.58 329.442 64.2177C333.837 80.7915 337.59 97.1956 340.7 113.43C357.873 116.807 375.372 120.933 393.198 125.806ZM349.981 228.998L232.981 228.998L232.981 104.124C266.801 104.371 302.143 108.082 339.006 115.256C346.323 153.889 349.981 191.552 349.981 228.244L349.981 228.998ZM111.982 228.998L111.982 228.244C111.982 191.476 115.64 153.742 122.956 115.042C105.745 118.492 88.3358 122.758 70.7271 127.841C49.5639 133.95 31.4458 140.055 16.3724 146.155C5.81177 172.611 0.35437 200.225 0 228.998L111.982 228.998ZM230.982 353.826C197.065 353.306 161.623 349.326 124.655 341.886C117.72 303.31 114.165 266.347 113.989 230.998L230.982 230.998L230.982 353.826ZM351.975 230.998C351.797 266.924 348.142 304.504 341.012 343.737C359.52 340.157 378.261 335.629 397.236 330.154C417.471 324.316 434.924 318.479 449.594 312.644Q463.982 273.953 463.981 231.998C463.981 231.664 463.981 231.331 463.979 230.998L351.975 230.998ZM134.516 397.018Q127.698 369.866 122.943 343.695C107.159 340.487 91.0996 336.652 74.7644 332.189C51.3629 325.794 31.275 319.398 14.501 312.999Q16.2471 317.671 18.203 322.295C29.9415 350.048 46.5181 374.632 67.9325 396.046C89.3469 417.461 113.931 434.037 141.684 445.776C144.18 446.832 146.687 447.842 149.204 448.806C144.307 433.778 139.412 416.515 134.516 397.018ZM232.981 355.966L232.981 463.996C260.488 463.883 286.94 459.124 312.338 449.718C317.396 434.363 322.455 416.607 327.517 396.448C331.781 379.466 335.438 362.773 338.489 346.37C304.406 352.788 271.108 355.997 238.595 355.998C236.728 355.998 234.857 355.987 232.981 355.966Z" transform="translate(24.018555 24.002441)" id="Vector-Intersect" fill="#FFFFFF" fill-rule="evenodd" stroke="none" />
      <path d="M0 256C0 114.615 114.615 0 256 0C397.385 0 512 114.615 512 256C512 397.385 397.385 512 256 512C114.615 512 0 397.385 0 256L0 256ZM149.526 136.387C184.986 129.463 219.606 126 253.386 126C253.924 126 254.462 126.001 255 126.003L255 24.0024C227.564 24.1146 201.176 28.8501 175.837 38.2087C170.715 52.6101 165.59 69.4806 160.461 88.8202C156.214 104.836 152.569 120.691 149.526 136.387L149.526 136.387ZM469.998 166.225C454.83 160.753 437.236 155.28 417.216 149.809C399.391 144.935 381.891 140.81 364.718 137.432C361.609 121.198 357.856 104.794 353.461 88.2201C348.518 69.5824 343.575 53.2212 338.632 39.1367C341.198 40.1174 343.753 41.1459 346.297 42.222C374.05 53.9606 398.634 70.537 420.048 91.9514C441.463 113.366 458.039 137.95 469.778 165.703L469.998 166.225L469.998 166.225ZM257 253L374 253L374 252.247C374 215.555 370.341 177.892 363.024 139.258C326.161 132.084 290.82 128.373 257 128.126L257 253L257 253ZM136 252.247L136.001 253L24.0186 253C24.3729 224.228 29.8303 196.614 40.391 170.157C55.4644 164.057 73.5825 157.952 94.7457 151.844C112.354 146.761 129.764 142.495 146.975 139.045C139.658 177.745 136 215.478 136 252.247L136 252.247ZM148.674 365.888C185.641 373.328 221.083 377.308 255.001 377.828L255.001 255L138.008 255C138.183 290.35 141.739 327.312 148.674 365.888L148.674 365.888ZM365.03 367.739C372.161 328.506 375.815 290.927 375.993 255L487.998 255C487.999 255.333 488 255.667 488 256C488 283.97 483.204 310.852 473.612 336.646C458.943 342.482 441.49 348.318 421.254 354.157C402.28 359.632 383.539 364.159 365.03 367.739L365.03 367.739ZM146.962 367.698C150.132 385.145 153.99 402.919 158.535 421.02C163.43 440.517 168.326 457.78 173.222 472.808C170.705 471.844 168.199 470.834 165.702 469.778C137.949 458.039 113.365 441.463 91.951 420.049C70.5366 398.634 53.9601 374.05 42.2216 346.297C40.9176 343.214 39.6836 340.115 38.5195 337.001C55.2936 343.4 75.3815 349.797 98.783 356.191C115.118 360.654 131.178 364.49 146.962 367.698L146.962 367.698ZM257 487.998L257 379.968C258.875 379.99 260.746 380 262.614 380C295.127 380 328.424 376.79 362.507 370.372C359.457 386.775 355.8 403.468 351.535 420.451C346.474 440.609 341.414 458.366 336.356 473.72C310.958 483.126 284.506 487.886 257 487.998L257 487.998Z" id="Vector-2" fill="#000000" fill-rule="evenodd" stroke="none" />
      <path d="M0 229.348C13.3186 100.595 122.063 0.166995 254.299 0C395.532 0.178358 509.969 114.725 509.969 256C509.969 275.587 507.769 294.661 503.603 312.987C500.363 317.446 496.292 320.995 491.389 323.633C485.979 326.544 480.203 328 474.06 328L474.056 328C463.957 328 455.338 324.43 448.197 317.289C441.057 310.148 437.486 301.529 437.486 291.43L437.486 244.569C437.486 234.471 433.916 225.851 426.776 218.711C419.635 211.57 411.015 208 400.917 208L388.342 208C381.715 208 376.058 210.343 371.372 215.029C366.686 219.714 364.344 225.371 364.344 231.998L364.344 232.002C364.344 238.629 362.001 244.285 357.315 248.971C352.629 253.657 346.972 256 340.346 256L327.199 256C317.258 256 308.773 252.485 301.744 245.456C294.715 238.427 291.201 229.942 291.201 220.002L291.201 219.998C291.201 210.057 287.686 201.572 280.657 194.543C273.628 187.514 265.143 184 255.203 184L254.056 184C244.115 184 235.63 187.514 228.601 194.543C221.572 201.572 218.058 210.057 218.058 219.998L218.058 220.002C218.058 229.942 214.543 238.427 207.514 245.456C200.485 252.485 192.001 256 182.06 256L180.913 256C170.973 256 162.488 252.485 155.459 245.456C148.43 238.427 144.915 229.942 144.915 220.002L144.915 219.998C144.915 210.057 141.401 201.572 134.372 194.543C127.343 187.514 118.858 184 108.917 184L107.77 184C97.8297 184 89.3448 187.514 82.3158 194.543C75.2868 201.572 71.7722 210.057 71.7723 219.998L71.7723 220.002C71.7722 229.942 68.2577 238.427 61.2287 245.456C54.1996 252.485 45.7148 256 35.7743 256L35.1989 256C27.0104 256 19.6519 253.528 13.1236 248.585C6.59534 243.642 2.22076 237.23 0 229.348L0 229.348ZM328.291 327.68C317.289 327.68 308.37 318.761 308.37 307.759C308.37 296.757 317.289 272.186 328.291 272.186C339.293 272.186 348.212 296.757 348.212 307.759C348.212 318.761 339.293 327.68 328.291 327.68L328.291 327.68ZM471.651 349.481C477.476 349.481 482.455 359.454 484.461 367.531C481.121 374.421 477.481 381.139 473.558 387.667C472.935 387.754 472.298 387.798 471.651 387.798C464.055 387.798 457.896 381.64 457.896 374.043C457.896 366.447 464.055 349.481 471.651 349.481L471.651 349.481Z" transform="translate(2.03125 0.00024414062)" id="Vector" fill="#FF6700" fill-rule="evenodd" stroke="none" />
    </g>
  </g>
</svg>