<?xml version="1.0" encoding="utf-8"?>
<svg width="1920px" height="1081px" viewBox="0 0 1920 1081" version="1.1" xmlns:xlink="http://www.w3.org/1999/xlink" xmlns="http://www.w3.org/2000/svg">
  <defs>
    <linearGradient x1="0" y1="0" x2="1" y2="1" id="gradient_1">
      <stop offset="0" stop-color="#000000" stop-opacity="0" />
      <stop offset="1" stop-color="#000000" />
    </linearGradient>
    <radialGradient gradientUnits="objectBoundingBox" cx="0%" cy="0%" fx="0%" fy="0%" r="5216.6665%" gradientTransform="translate(0,0),scale(0.019169329,1),scale(1,0),translate(-0,-0)" id="gradient_2">
      <stop offset="0%" stop-color="#00A6D6" />
      <stop offset="50.86207%" stop-color="#D6006E" />
      <stop offset="100%" stop-color="#F5E617" />
    </radialGradient>
    <rect width="1920" height="1080" id="artboard_1" />
    <clipPath id="clip_1">
      <use xlink:href="#artboard_1" clip-rule="evenodd" />
    </clipPath>
  </defs>
  <g id="YT-Banner" clip-path="url(#clip_1)">
    <use xlink:href="#artboard_1" stroke="none" fill="#000000" />
    <g id="Group-2" transform="translate(750 331.00012)" opacity="0.25">
      <path d="M187.016 83.2717C159.473 83.2719 131.245 86.0984 102.333 91.7512C104.814 78.9372 107.786 65.9927 111.249 52.9176C115.43 37.1286 119.609 23.3555 123.786 11.5981C144.446 3.95766 165.961 0.0915871 188.332 0L188.332 83.2737C187.893 83.2723 187.454 83.2717 187.016 83.2717ZM320.596 102.709C336.919 107.176 351.264 111.644 363.632 116.112L363.452 115.685C353.881 93.0272 340.365 72.9568 322.905 55.474C305.444 37.9911 285.4 24.458 262.771 14.8746C260.697 13.996 258.614 13.1564 256.521 12.3557C260.552 23.8544 264.582 37.2118 268.612 52.4277C272.196 65.9587 275.256 79.3511 277.791 92.6049C291.793 95.3622 306.061 98.7302 320.596 102.709ZM285.358 186.955L189.962 186.955L189.962 85.0073C217.538 85.2091 246.353 88.2386 276.41 94.0956C282.376 125.636 285.359 156.384 285.359 186.34L285.358 186.955ZM91.3051 186.955L91.3047 186.34C91.3047 156.322 94.2874 125.516 100.253 93.9214C86.2201 96.7377 72.025 100.221 57.6677 104.37C40.4122 109.358 25.6395 114.341 13.3493 119.322C4.73865 140.921 0.288937 163.465 0 186.955L91.3051 186.955ZM188.332 288.866C160.677 288.441 131.779 285.192 101.638 279.118C95.9833 247.624 93.0844 217.447 92.9412 188.588L188.332 188.588L188.332 288.866ZM286.984 188.588C286.839 217.919 283.859 248.599 278.045 280.629C293.136 277.706 308.417 274.01 323.888 269.54C340.387 264.774 354.617 260.008 366.578 255.244C374.399 234.186 378.309 212.239 378.309 189.404C378.309 189.132 378.308 188.86 378.307 188.588L286.984 188.588ZM109.678 324.128Q104.119 301.961 100.242 280.595C87.3726 277.976 74.2783 274.845 60.9593 271.201C41.8788 265.981 25.5 260.758 11.8232 255.534C12.7724 258.077 13.7785 260.607 14.8417 263.124C24.4128 285.782 37.9285 305.852 55.3889 323.335C72.8492 340.818 92.8937 354.351 115.522 363.934C117.558 364.796 119.602 365.621 121.654 366.408C117.662 354.139 113.67 340.045 109.678 324.128ZM189.962 290.613L189.962 378.809C212.39 378.717 233.957 374.831 254.666 367.152C258.79 354.617 262.915 340.12 267.042 323.663C270.519 309.798 273.501 296.17 275.988 282.778C248.199 288.018 221.049 290.638 194.54 290.639C193.017 290.639 191.491 290.63 189.962 290.613Z" transform="translate(19.58374 19.595703)" id="Vector-Intersect" fill="#FFFFFF" fill-rule="evenodd" stroke="none" />
      <path d="M0 209C0 93.5725 93.452 0 208.731 0C324.01 0 417.462 93.5725 417.462 209C417.462 324.428 324.01 418 208.731 418C93.452 418 0 324.428 0 209L0 209ZM121.917 111.347C150.829 105.694 179.056 102.868 206.599 102.867C207.038 102.867 207.476 102.868 207.915 102.869L207.915 19.5957C185.545 19.6873 164.029 23.5534 143.37 31.1938C139.193 42.9512 135.014 56.7243 130.833 72.5133C127.37 85.5884 124.398 98.5329 121.917 111.347L121.917 111.347ZM383.215 135.707C370.848 131.239 356.503 126.772 340.18 122.305C325.645 118.326 311.377 114.958 297.375 112.201C294.84 98.9468 291.78 85.5544 288.196 72.0234C284.166 56.8075 280.136 43.4501 276.105 31.9514C278.197 32.7521 280.281 33.5917 282.355 34.4703C304.984 44.0537 325.028 57.5868 342.489 75.0697C359.949 92.5526 373.465 112.623 383.036 135.281L383.215 135.707L383.215 135.707ZM209.546 206.551L304.942 206.551L304.943 205.936C304.943 175.98 301.959 145.232 295.993 113.691C265.937 107.834 237.121 104.805 209.546 104.603L209.546 206.551L209.546 206.551ZM110.888 205.936L110.889 206.551L19.5837 206.551C19.8727 183.061 24.3224 160.516 32.9331 138.917C45.2232 133.937 59.996 128.953 77.2515 123.966C91.6088 119.816 105.804 116.333 119.837 113.517C113.871 145.112 110.888 175.918 110.888 205.936L110.888 205.936ZM121.222 298.713C151.363 304.788 180.261 308.037 207.916 308.461L207.916 208.184L112.525 208.184C112.668 237.043 115.567 267.22 121.222 298.713L121.222 298.713ZM297.629 300.225C303.443 268.195 306.423 237.514 306.568 208.184L397.891 208.184C397.892 208.456 397.893 208.728 397.893 209C397.893 231.835 393.983 253.782 386.162 274.84C374.201 279.604 359.971 284.369 343.471 289.136C328.001 293.605 312.72 297.302 297.629 300.225L297.629 300.225ZM119.826 300.19C122.411 314.435 125.556 328.946 129.262 343.724C133.254 359.641 137.246 373.734 141.238 386.003C139.186 385.216 137.142 384.392 135.106 383.53C112.478 373.946 92.4332 360.413 74.9729 342.93C57.5125 325.447 43.9968 305.377 34.4257 282.719C33.3625 280.202 32.3563 277.672 31.4072 275.129C45.084 280.354 61.4628 285.576 80.5433 290.797C93.8623 294.44 106.957 297.571 119.826 300.19L119.826 300.19ZM209.546 398.405L209.546 310.208C211.075 310.226 212.601 310.234 214.123 310.234C240.633 310.234 267.782 307.614 295.572 302.374C293.085 315.766 290.103 329.394 286.626 343.258C282.499 359.716 278.373 374.213 274.25 386.748C253.541 394.427 231.973 398.313 209.546 398.405L209.546 398.405Z" id="Vector-2" fill="#000000" fill-rule="evenodd" stroke="none" />
      <path d="M10.7004 202.947C5.37754 198.911 1.81071 193.676 0 187.241C10.8684 82.0389 99.6726 0 207.613 0C322.892 0 416.344 93.5725 416.344 209C416.344 224.581 414.641 239.764 411.412 254.373C408.652 258.559 405.067 261.84 400.656 264.216C396.246 266.593 391.536 267.781 386.527 267.781L386.524 267.781C378.29 267.781 371.262 264.866 365.44 259.037C359.618 253.207 356.707 246.17 356.707 237.926L356.707 199.668C356.707 191.424 353.796 184.387 347.973 178.557C342.151 172.727 335.123 169.813 326.89 169.813L316.636 169.813C311.233 169.813 306.621 171.725 302.8 175.551C298.98 179.376 297.069 183.994 297.069 189.405L297.069 189.408C297.069 194.818 295.159 199.436 291.338 203.262C287.518 207.087 282.906 209 277.502 209L266.783 209C258.678 209 251.76 206.131 246.029 200.392C240.298 194.654 237.432 187.727 237.432 179.611L237.432 179.608C237.432 171.492 234.566 164.565 228.835 158.827C223.104 153.088 216.186 150.219 208.081 150.219L207.146 150.219C199.041 150.219 192.122 153.088 186.391 158.827C180.66 164.565 177.795 171.492 177.795 179.608L177.795 179.611C177.795 187.727 174.929 194.654 169.198 200.392C163.467 206.131 156.549 209 148.444 209L147.508 209C139.403 209 132.485 206.131 126.754 200.392Q118.157 191.784 118.157 179.611L118.157 179.608C118.157 171.492 115.292 164.565 109.56 158.827C103.829 153.088 96.9112 150.219 88.8061 150.219L87.871 150.219C79.7659 150.219 72.8477 153.088 67.1166 158.827C61.3854 164.565 58.5199 171.492 58.5199 179.608L58.5199 179.611C58.5199 187.727 55.6543 194.654 49.9231 200.392C44.1919 206.131 37.2738 209 29.1687 209L28.6996 209C22.023 209 16.0233 206.982 10.7004 202.947ZM267.674 267.52C258.703 267.52 251.431 260.238 251.431 251.256C251.431 242.274 258.703 222.214 267.674 222.214C276.645 222.214 283.917 242.274 283.917 251.256C283.917 260.238 276.645 267.52 267.674 267.52ZM384.564 316.601C378.37 316.601 373.348 311.573 373.348 305.372C373.348 299.17 378.37 285.319 384.564 285.319C390.758 285.319 395.779 299.17 395.779 305.372C395.779 311.573 390.758 316.601 384.564 316.601Z" transform="translate(1.6560059 0)" id="Vector-Union" fill="#FF6700" fill-rule="evenodd" stroke="none" />
      <path d="M208.731 0C93.4519 0 0 93.5725 0 209C0 324.428 93.4519 418 208.731 418C324.01 418 417.461 324.428 417.461 209C417.461 93.5725 324.01 0 208.731 0L208.731 0Z" id="Path-2" fill="url(#gradient_1)" fill-rule="evenodd" stroke="none" />
    </g>
    <path d="M901.586 0L890.185 16.754L890.185 50.7406L917.022 78.8234L917.022 105.151L914.215 110.097L887.729 110.097L891.062 131L927.721 131L938.421 114.246L938.421 67.0158L912.286 40.3691L912.286 25.6894L915.268 20.743L932.984 20.743L940 0L901.586 0ZM857.735 20.7429L859.664 25.6893L859.664 105.151L857.735 110.097L848.087 110.097L845.807 105.151L845.807 25.6893L848.087 20.7429L857.735 20.7429ZM872.293 131L882.818 114.246L882.818 16.754L871.592 0L834.23 0L823.004 16.754L823.004 114.246L833.353 131L872.293 131ZM791.431 131L814.585 131L814.585 58.5591L798.974 0L769.33 0L753.895 58.5591L753.895 131L775.996 131L775.996 97.4921L791.431 97.4921L791.431 131ZM775.995 59.3568L782.135 31.2739L784.415 31.2739L791.431 59.3568L791.431 78.0255L775.995 78.0255L775.995 59.3568ZM707.587 72.4409L721.269 72.4409L721.269 131L744.422 131L744.422 0L721.269 0L721.269 53.6127L707.587 53.6127L707.587 0L684.609 0L684.609 131L707.587 131L707.587 72.4409ZM630.409 114.246L640.758 131L678.295 131L674.962 110.097L655.492 110.097L653.211 105.151L653.211 25.6894L655.492 20.743L671.629 20.743L678.47 0L641.635 0L630.409 16.754L630.409 114.246ZM583.049 53.6127L566.21 53.6127L566.21 20.743L579.366 20.743L586.382 0L543.057 0L543.057 131L566.21 131L566.21 72.4409L578.489 72.4409L583.049 53.6127ZM508.852 20.7429L510.782 25.6893L510.782 105.151L508.852 110.097L499.205 110.097L496.925 105.151L496.925 25.6893L499.205 20.7429L508.852 20.7429ZM523.411 131L533.936 114.246L533.936 16.754L522.71 0L485.348 0L474.122 16.754L474.122 114.246L484.471 131L523.411 131ZM426.763 53.6127L407.819 53.6127L407.819 20.743L423.08 20.743L429.92 0L384.666 0L384.666 131L429.92 131L426.763 110.097L407.819 110.097L407.819 72.4409L422.203 72.4409L426.763 53.6127ZM338.358 0L326.957 16.754L326.957 50.7406L353.794 78.8234L353.794 105.151L350.988 110.097L324.501 110.097L327.834 131L364.494 131L375.194 114.246L375.194 67.0158L349.058 40.3691L349.058 25.6894L352.04 20.743L369.756 20.743L376.772 0L338.358 0ZM318.362 0L295.383 0L295.383 131L318.362 131L318.362 0ZM222.766 131L246.094 131L246.094 20.743L257.847 20.743L260.302 25.6894L260.302 52.9744L249.778 66.218L260.302 78.0256L260.302 121.905L265.389 131L290.121 131L284.333 121.905L284.333 77.2278L275.738 63.1864L284.333 49.9428L284.333 16.754L273.984 0L222.766 0L222.766 131ZM174.178 53.6127L155.234 53.6127L155.234 20.743L170.495 20.743L177.335 0L132.081 0L132.081 131L177.335 131L174.178 110.097L155.234 110.097L155.234 72.4409L169.618 72.4409L174.178 53.6127ZM84.8968 72.4409L98.5784 72.4409L98.5784 131L121.732 131L121.732 0L98.5784 0L98.5784 53.6127L84.8968 53.6127L84.8968 0L61.9186 0L61.9186 131L84.8968 131L84.8968 72.4409ZM55.9545 0L7.01624 0L0 20.743L13.8571 20.743L13.8571 131L36.8352 131L36.8352 20.743L48.9383 20.743L55.9545 0Z" transform="translate(490 494.00012)" id="THE-RISE-OF-CHAOS" fill="#FFFFFF" stroke="none" />
    <path d="M330 0L0 0L0 18L330 18L330 0ZM608.064 18L939 18L939 0L608.064 0L608.064 18Z" transform="translate(490 431.00012)" id="Vector-Difference" fill="url(#gradient_2)" fill-rule="evenodd" stroke="none" />
    <path d="M0 0L938 0L938 18L0 18L0 0Z" transform="translate(490 660.0001)" id="Rectangle-2" fill="#FF6700" fill-rule="evenodd" stroke="none" />
    <g id="Group" transform="translate(841 401.00012)">
      <path d="M78.2441 0L99.6777 0L99.6777 59L75.1328 59L54.3906 36.9902L54.3906 59L11.1777 59C23.0143 59 33.2227 52.0288 37.9211 41.9682L21.419 34.3101C19.6287 38.1398 15.7419 40.793 11.2354 40.793C5.03025 40.793 0 35.7627 0 29.5576C0 23.3525 5.03025 18.3223 11.2354 18.3223C15.7419 18.3223 19.6287 20.9755 21.419 24.805L37.9652 17.1266C33.2867 7.01501 23.0514 0 11.1777 0L57.502 0L78.2441 22.0098L78.2441 0L78.2441 0Z" transform="translate(18.322266 0)" id="Vector" fill="#FFFFFF" fill-rule="evenodd" stroke="none" />
      <path d="M0 29.5C0 13.2076 13.2076 0 29.5 0C41.3737 0 51.6089 7.01498 56.2874 17.1266L39.7412 24.805C37.9509 20.9755 34.0641 18.3223 29.5576 18.3223C23.3525 18.3223 18.3222 23.3525 18.3222 29.5576C18.3222 35.7627 23.3525 40.793 29.5576 40.793C34.0641 40.793 37.951 38.1397 39.7412 34.3102L56.2433 41.9682C51.5449 52.0288 41.3365 59 29.5 59C13.2076 59 0 45.7924 0 29.5L0 29.5Z" id="Vector-shape-4" fill="#000000" fill-rule="evenodd" stroke="none" />
      <path d="M0 0L28.5784 0C36.9791 0 44.1495 2.9701 50.0897 8.91029C56.0299 14.8505 59 22.0209 59 30.4216L59 59L33.1875 59L33.1875 26.0427C33.1875 24.9609 32.805 24.0375 32.04 23.2725C31.275 22.5075 30.3516 22.125 29.2698 22.125L25.8125 22.125L25.8125 59L0 59L0 0L0 0Z" transform="translate(177 0)" id="Vector-shape" fill="#FF6700" fill-rule="evenodd" stroke="none" />
      <path d="M36.2337 59L0 0L19.8804 0L39.1195 28.6934L39.1195 0L59 0L59 59L36.2337 59L36.2337 59Z" transform="translate(118 0)" id="Vector-shape" fill="#FFFFFF" fill-rule="evenodd" stroke="none" />
    </g>
  </g>
</svg>